<svg xmlns="http://www.w3.org/2000/svg" xmlns:xlink="http://www.w3.org/1999/xlink" width="500" zoomAndPan="magnify" viewBox="0 0 375 374.999991" height="500" preserveAspectRatio="xMidYMid meet" version="1.0"><defs><g/></defs><g fill="#acca96" fill-opacity="1"><g transform="translate(32.038802, 230.332948)"><g><path d="M 22.015625 -7.203125 C 17.578125 -5.609375 13.601562 -5.070312 10.09375 -5.59375 C 6.582031 -6.125 3.582031 -7.5625 1.09375 -9.90625 C -1.382812 -12.257812 -3.3125 -15.359375 -4.6875 -19.203125 C -6.21875 -23.441406 -6.738281 -27.445312 -6.25 -31.21875 C -5.757812 -35 -4.285156 -38.316406 -1.828125 -41.171875 C 0.617188 -44.023438 4.019531 -46.234375 8.375 -47.796875 C 12.4375 -49.253906 15.898438 -49.644531 18.765625 -48.96875 C 21.640625 -48.300781 23.519531 -46.738281 24.40625 -44.28125 C 24.976562 -42.6875 24.953125 -41.238281 24.328125 -39.9375 C 23.703125 -38.632812 22.488281 -37.664062 20.6875 -37.03125 C 19.570312 -36.625 18.484375 -36.441406 17.421875 -36.484375 C 16.359375 -36.523438 15.257812 -36.535156 14.125 -36.515625 C 12.988281 -36.503906 11.75 -36.257812 10.40625 -35.78125 C 8.851562 -35.21875 7.519531 -34.429688 6.40625 -33.421875 C 5.300781 -32.421875 4.59375 -31.125 4.28125 -29.53125 C 3.96875 -27.945312 4.210938 -26.039062 5.015625 -23.8125 C 6.191406 -20.539062 7.796875 -18.5 9.828125 -17.6875 C 11.859375 -16.882812 14.164062 -16.945312 16.75 -17.875 C 17.75 -18.226562 18.796875 -18.695312 19.890625 -19.28125 C 20.984375 -19.875 22.023438 -20.441406 23.015625 -20.984375 C 24.015625 -21.535156 24.875 -21.941406 25.59375 -22.203125 C 27.113281 -22.742188 28.484375 -22.78125 29.703125 -22.3125 C 30.929688 -21.84375 31.832031 -20.804688 32.40625 -19.203125 C 33.195312 -17.003906 32.742188 -14.84375 31.046875 -12.71875 C 29.347656 -10.59375 26.335938 -8.753906 22.015625 -7.203125 Z M 22.015625 -7.203125 "/></g></g></g><g fill="#acca96" fill-opacity="1"><g transform="translate(66.830582, 217.762193)"><g><path d="M 29.375 -8.015625 C 28.15625 -7.703125 27.117188 -7.8125 26.265625 -8.34375 C 25.410156 -8.875 24.71875 -9.675781 24.1875 -10.75 C 23.664062 -11.820312 23.242188 -12.988281 22.921875 -14.25 L 23.140625 -14.5625 C 23.117188 -12.789062 22.691406 -11.164062 21.859375 -9.6875 C 21.035156 -8.207031 19.96875 -6.957031 18.65625 -5.9375 C 17.351562 -4.925781 15.972656 -4.226562 14.515625 -3.84375 C 12.453125 -3.3125 10.503906 -3.304688 8.671875 -3.828125 C 6.835938 -4.347656 5.195312 -5.5 3.75 -7.28125 C 2.394531 -8.976562 1.082031 -11.296875 -0.1875 -14.234375 C -1.46875 -17.179688 -2.53125 -20.28125 -3.375 -23.53125 C -3.8125 -25.1875 -4.140625 -26.726562 -4.359375 -28.15625 C -4.578125 -29.59375 -4.65625 -30.804688 -4.59375 -31.796875 C -4.53125 -33.085938 -4.164062 -34.113281 -3.5 -34.875 C -2.84375 -35.644531 -1.925781 -36.1875 -0.75 -36.5 C 0.632812 -36.851562 1.859375 -36.648438 2.921875 -35.890625 C 3.984375 -35.128906 4.816406 -33.882812 5.421875 -32.15625 C 5.898438 -30.957031 6.390625 -29.515625 6.890625 -27.828125 C 7.390625 -26.140625 7.894531 -24.460938 8.40625 -22.796875 C 8.925781 -21.140625 9.375 -19.75 9.75 -18.625 C 10.488281 -16.726562 11.367188 -15.421875 12.390625 -14.703125 C 13.421875 -13.984375 14.53125 -13.78125 15.71875 -14.09375 C 17.40625 -14.53125 18.507812 -15.539062 19.03125 -17.125 C 19.5625 -18.71875 19.507812 -20.726562 18.875 -23.15625 C 18.5625 -24.375 18.128906 -25.75 17.578125 -27.28125 C 17.035156 -28.820312 16.503906 -30.320312 15.984375 -31.78125 C 15.472656 -33.238281 15.09375 -34.445312 14.84375 -35.40625 C 14.289062 -37.507812 14.273438 -39.117188 14.796875 -40.234375 C 15.328125 -41.359375 16.28125 -42.097656 17.65625 -42.453125 C 18.800781 -42.753906 19.859375 -42.734375 20.828125 -42.390625 C 21.804688 -42.046875 22.628906 -41.4375 23.296875 -40.5625 C 24.128906 -39.550781 24.992188 -38.117188 25.890625 -36.265625 C 26.785156 -34.410156 27.671875 -32.273438 28.546875 -29.859375 C 29.421875 -27.453125 30.21875 -24.867188 30.9375 -22.109375 C 32.050781 -17.828125 32.53125 -14.53125 32.375 -12.21875 C 32.21875 -9.90625 31.21875 -8.503906 29.375 -8.015625 Z M 29.375 -8.015625 "/></g></g></g><g fill="#acca96" fill-opacity="1"><g transform="translate(102.449812, 208.743819)"><g><path d="M 9.875 -1.734375 C 8.4375 -1.460938 7.234375 -1.546875 6.265625 -1.984375 C 5.296875 -2.429688 4.421875 -3.351562 3.640625 -4.75 C 2.710938 -6.457031 1.820312 -8.765625 0.96875 -11.671875 C 0.125 -14.578125 -0.703125 -18.164062 -1.515625 -22.4375 C -2.003906 -25.039062 -2.390625 -27.679688 -2.671875 -30.359375 C -2.953125 -33.046875 -3.125 -35.523438 -3.1875 -37.796875 C -3.257812 -40.066406 -3.210938 -41.820312 -3.046875 -43.0625 C -2.742188 -44.644531 -2.296875 -45.800781 -1.703125 -46.53125 C -1.117188 -47.269531 -0.34375 -47.734375 0.625 -47.921875 C 1.644531 -48.109375 2.546875 -47.953125 3.328125 -47.453125 C 4.109375 -46.953125 4.8125 -46 5.4375 -44.59375 C 5.914062 -43.34375 6.414062 -41.8125 6.9375 -40 C 7.457031 -38.1875 7.910156 -36.253906 8.296875 -34.203125 C 8.796875 -31.554688 9.179688 -28.75 9.453125 -25.78125 C 9.734375 -22.8125 9.914062 -19.875 10 -16.96875 C 10.082031 -14.0625 10.035156 -11.378906 9.859375 -8.921875 L 6.65625 -8.625 C 7.53125 -9.914062 8.570312 -10.988281 9.78125 -11.84375 C 11 -12.695312 12.175781 -13.226562 13.3125 -13.4375 C 14.507812 -13.664062 15.488281 -13.523438 16.25 -13.015625 C 17.007812 -12.515625 17.507812 -11.644531 17.75 -10.40625 C 17.96875 -9.238281 17.726562 -8.035156 17.03125 -6.796875 C 16.332031 -5.566406 15.351562 -4.488281 14.09375 -3.5625 C 12.832031 -2.632812 11.425781 -2.023438 9.875 -1.734375 Z M 9.875 -1.734375 "/></g></g></g><g fill="#acca96" fill-opacity="1"><g transform="translate(121.779489, 205.123817)"><g><path d="M 2.359375 -46.359375 C 4.234375 -46.628906 5.648438 -46.328125 6.609375 -45.453125 C 7.578125 -44.585938 8.15625 -43.53125 8.34375 -42.28125 C 8.5625 -40.707031 8.222656 -39.414062 7.328125 -38.40625 C 6.429688 -37.40625 5.066406 -36.773438 3.234375 -36.515625 C 1.421875 -36.253906 0.0078125 -36.53125 -1 -37.34375 C -2.019531 -38.15625 -2.625 -39.210938 -2.8125 -40.515625 C -3.039062 -42.148438 -2.675781 -43.46875 -1.71875 -44.46875 C -0.757812 -45.476562 0.597656 -46.109375 2.359375 -46.359375 Z M 4.65625 -33.296875 C 6.175781 -33.515625 7.535156 -32.507812 8.734375 -30.28125 C 9.929688 -28.050781 10.898438 -24.367188 11.640625 -19.234375 C 12.546875 -12.929688 12.65625 -8.3125 11.96875 -5.375 C 11.289062 -2.4375 9.851562 -0.8125 7.65625 -0.5 C 5.976562 -0.25 4.585938 -1.09375 3.484375 -3.03125 C 2.390625 -4.976562 1.472656 -8.519531 0.734375 -13.65625 C -0.171875 -19.96875 -0.226562 -24.75 0.5625 -28 C 1.363281 -31.25 2.726562 -33.015625 4.65625 -33.296875 Z M 4.65625 -33.296875 "/></g></g></g><g fill="#acca96" fill-opacity="1"><g transform="translate(137.222035, 202.527419)"><g><path d="M 6.765625 -37.578125 C 8.316406 -37.703125 9.425781 -37.269531 10.09375 -36.28125 C 10.757812 -35.300781 11.171875 -33.804688 11.328125 -31.796875 C 11.367188 -31.328125 11.378906 -30.820312 11.359375 -30.28125 C 11.335938 -29.738281 11.285156 -29.25 11.203125 -28.8125 L 10.984375 -29.96875 C 11.703125 -32.613281 12.976562 -34.734375 14.8125 -36.328125 C 16.65625 -37.929688 18.679688 -38.816406 20.890625 -38.984375 C 23.421875 -39.179688 25.585938 -38.632812 27.390625 -37.34375 C 29.203125 -36.0625 30.628906 -34.164062 31.671875 -31.65625 C 32.722656 -29.15625 33.382812 -26.148438 33.65625 -22.640625 C 33.820312 -20.628906 33.890625 -18.648438 33.859375 -16.703125 C 33.835938 -14.765625 33.75 -12.984375 33.59375 -11.359375 C 33.445312 -9.742188 33.210938 -8.40625 32.890625 -7.34375 C 32.453125 -5.90625 31.796875 -4.804688 30.921875 -4.046875 C 30.046875 -3.296875 28.976562 -2.867188 27.71875 -2.765625 C 26.375 -2.660156 25.304688 -3.039062 24.515625 -3.90625 C 23.734375 -4.78125 23.28125 -6.023438 23.15625 -7.640625 C 23.050781 -8.898438 23.007812 -10.4375 23.03125 -12.25 C 23.050781 -14.0625 23.066406 -15.890625 23.078125 -17.734375 C 23.097656 -19.578125 23.054688 -21.191406 22.953125 -22.578125 C 22.585938 -27.203125 20.925781 -29.398438 17.96875 -29.171875 C 16.394531 -29.046875 15.117188 -28.21875 14.140625 -26.6875 C 13.171875 -25.15625 12.609375 -23.054688 12.453125 -20.390625 C 12.410156 -19.359375 12.441406 -18.078125 12.546875 -16.546875 C 12.648438 -15.023438 12.75 -13.519531 12.84375 -12.03125 C 12.9375 -10.550781 12.984375 -9.304688 12.984375 -8.296875 C 12.984375 -5.703125 12.570312 -3.816406 11.75 -2.640625 C 10.9375 -1.472656 9.757812 -0.828125 8.21875 -0.703125 C 6.375 -0.554688 4.929688 -1.125 3.890625 -2.40625 C 2.847656 -3.695312 2.203125 -5.960938 1.953125 -9.203125 C 1.828125 -10.859375 1.722656 -12.71875 1.640625 -14.78125 C 1.554688 -16.84375 1.503906 -18.910156 1.484375 -20.984375 C 1.460938 -23.066406 1.484375 -24.96875 1.546875 -26.6875 C 1.691406 -29.914062 2.144531 -32.503906 2.90625 -34.453125 C 3.675781 -36.398438 4.960938 -37.441406 6.765625 -37.578125 Z M 6.765625 -37.578125 "/></g></g></g><g fill="#acca96" fill-opacity="1"><g transform="translate(173.300414, 199.635511)"><g><path d="M 6.359375 0.484375 C 4.773438 0.472656 3.5625 -0.0625 2.71875 -1.125 C 1.875 -2.1875 1.46875 -4.101562 1.5 -6.875 C 1.507812 -8.414062 1.703125 -10.269531 2.078125 -12.4375 C 2.460938 -14.613281 2.992188 -16.9375 3.671875 -19.40625 C 4.347656 -21.875 5.125 -24.347656 6 -26.828125 C 6.875 -29.316406 7.816406 -31.625 8.828125 -33.75 C 10.085938 -36.351562 11.316406 -38.367188 12.515625 -39.796875 C 13.722656 -41.234375 14.984375 -42.238281 16.296875 -42.8125 C 17.609375 -43.394531 18.976562 -43.679688 20.40625 -43.671875 C 22.539062 -43.648438 24.507812 -42.894531 26.3125 -41.40625 C 28.125 -39.925781 29.738281 -37.398438 31.15625 -33.828125 C 32.082031 -31.398438 32.945312 -28.695312 33.75 -25.71875 C 34.550781 -22.738281 35.160156 -19.679688 35.578125 -16.546875 C 36.003906 -13.421875 36.203125 -10.394531 36.171875 -7.46875 C 36.140625 -4.613281 35.582031 -2.523438 34.5 -1.203125 C 33.425781 0.109375 31.941406 0.753906 30.046875 0.734375 C 28.304688 0.710938 26.953125 0.09375 25.984375 -1.125 C 25.023438 -2.34375 24.425781 -4.359375 24.1875 -7.171875 C 24.050781 -8.953125 23.988281 -10.78125 24 -12.65625 C 24.019531 -14.539062 24.117188 -16.351562 24.296875 -18.09375 L 26.328125 -13.5625 C 25.097656 -13.144531 23.5625 -12.894531 21.71875 -12.8125 C 19.875 -12.738281 17.953125 -12.800781 15.953125 -13 C 13.960938 -13.195312 12.113281 -13.578125 10.40625 -14.140625 L 14.4375 -18.09375 C 14.457031 -16.1875 14.335938 -14.3125 14.078125 -12.46875 C 13.816406 -10.632812 13.523438 -8.960938 13.203125 -7.453125 C 12.898438 -5.722656 12.476562 -4.265625 11.9375 -3.078125 C 11.394531 -1.898438 10.675781 -1.003906 9.78125 -0.390625 C 8.882812 0.210938 7.742188 0.503906 6.359375 0.484375 Z M 19.8125 -20.703125 C 21.832031 -20.679688 23.335938 -21.03125 24.328125 -21.75 C 25.328125 -22.46875 25.835938 -23.5 25.859375 -24.84375 C 25.859375 -25.632812 25.710938 -26.566406 25.421875 -27.640625 C 25.140625 -28.722656 24.742188 -29.769531 24.234375 -30.78125 C 23.734375 -31.789062 23.117188 -32.632812 22.390625 -33.3125 C 21.671875 -34 20.898438 -34.347656 20.078125 -34.359375 C 19.203125 -34.367188 18.398438 -34.03125 17.671875 -33.34375 C 16.953125 -32.65625 16.320312 -31.785156 15.78125 -30.734375 C 15.238281 -29.691406 14.800781 -28.609375 14.46875 -27.484375 C 14.144531 -26.367188 13.976562 -25.375 13.96875 -24.5 C 13.957031 -23.351562 14.453125 -22.4375 15.453125 -21.75 C 16.460938 -21.070312 17.914062 -20.722656 19.8125 -20.703125 Z M 19.8125 -20.703125 "/></g></g></g><g fill="#acca96" fill-opacity="1"><g transform="translate(209.213562, 200.057782)"><g><path d="M 15.78125 -32.3125 L 15.125 -32.359375 C 14.925781 -34.035156 14.890625 -35.609375 15.015625 -37.078125 C 15.285156 -39.992188 16.304688 -42.210938 18.078125 -43.734375 C 19.847656 -45.265625 22.660156 -45.851562 26.515625 -45.5 C 28.960938 -45.28125 30.691406 -44.738281 31.703125 -43.875 C 32.722656 -43.007812 33.160156 -41.8125 33.015625 -40.28125 C 32.773438 -37.59375 31.160156 -36.25 28.171875 -36.25 C 26.859375 -36.238281 25.832031 -36.097656 25.09375 -35.828125 C 24.351562 -35.566406 23.796875 -35.09375 23.421875 -34.40625 C 23.046875 -33.726562 22.757812 -32.742188 22.5625 -31.453125 L 21.671875 -31.640625 C 22.535156 -31.921875 23.507812 -32.109375 24.59375 -32.203125 C 25.675781 -32.304688 26.726562 -32.3125 27.75 -32.21875 C 29.570312 -32.050781 31.007812 -31.539062 32.0625 -30.6875 C 33.113281 -29.832031 33.554688 -28.519531 33.390625 -26.75 C 33.234375 -25.019531 32.523438 -23.773438 31.265625 -23.015625 C 30.003906 -22.253906 28.503906 -21.953125 26.765625 -22.109375 C 25.941406 -22.191406 25.070312 -22.34375 24.15625 -22.5625 C 23.25 -22.78125 22.347656 -23.050781 21.453125 -23.375 L 21.828125 -24.171875 C 22.097656 -22.316406 22.300781 -20.304688 22.4375 -18.140625 C 22.582031 -15.984375 22.65625 -13.832031 22.65625 -11.6875 C 22.65625 -9.550781 22.570312 -7.554688 22.40625 -5.703125 C 22.269531 -4.210938 21.914062 -2.851562 21.34375 -1.625 C 20.78125 -0.40625 20.019531 0.535156 19.0625 1.203125 C 18.101562 1.878906 16.9375 2.148438 15.5625 2.015625 C 13.4375 1.828125 11.972656 0.960938 11.171875 -0.578125 C 10.367188 -2.128906 10.066406 -3.988281 10.265625 -6.15625 C 10.421875 -7.851562 10.695312 -9.773438 11.09375 -11.921875 C 11.488281 -14.078125 11.988281 -16.285156 12.59375 -18.546875 C 13.207031 -20.816406 13.890625 -22.988281 14.640625 -25.0625 L 15.484375 -24.578125 C 13.660156 -23.785156 11.410156 -23.515625 8.734375 -23.765625 C 6.921875 -23.929688 5.554688 -24.429688 4.640625 -25.265625 C 3.722656 -26.109375 3.335938 -27.316406 3.484375 -28.890625 C 3.628906 -30.554688 4.316406 -31.785156 5.546875 -32.578125 C 6.773438 -33.378906 8.351562 -33.691406 10.28125 -33.515625 C 11.382812 -33.410156 12.394531 -33.25 13.3125 -33.03125 C 14.226562 -32.8125 15.050781 -32.570312 15.78125 -32.3125 Z M 15.78125 -32.3125 "/></g></g></g><g fill="#acca96" fill-opacity="1"><g transform="translate(239.332457, 202.820595)"><g><path d="M 6.8125 -25.109375 C 7.46875 -29.171875 8.375 -32.035156 9.53125 -33.703125 C 10.6875 -35.367188 12.066406 -36.066406 13.671875 -35.796875 C 14.835938 -35.609375 15.679688 -35.035156 16.203125 -34.078125 C 16.722656 -33.128906 17.039062 -32.015625 17.15625 -30.734375 C 17.28125 -29.460938 17.238281 -28.195312 17.03125 -26.9375 L 16.75 -27.109375 C 17.757812 -29.109375 19.070312 -30.753906 20.6875 -32.046875 C 22.3125 -33.347656 24.097656 -33.84375 26.046875 -33.53125 C 28.421875 -33.144531 30.03125 -31.890625 30.875 -29.765625 C 31.71875 -27.640625 31.898438 -25.128906 31.421875 -22.234375 C 30.796875 -18.410156 29.851562 -15.816406 28.59375 -14.453125 C 27.332031 -13.097656 25.863281 -12.554688 24.1875 -12.828125 C 22.925781 -13.035156 22.070312 -13.613281 21.625 -14.5625 C 21.1875 -15.519531 21.207031 -17.003906 21.6875 -19.015625 C 22.125 -20.910156 22.234375 -22.257812 22.015625 -23.0625 C 21.804688 -23.863281 21.351562 -24.316406 20.65625 -24.421875 C 19.75 -24.578125 18.945312 -24.160156 18.25 -23.171875 C 17.550781 -22.179688 17.066406 -20.84375 16.796875 -19.15625 C 16.660156 -18.375 16.585938 -17.351562 16.578125 -16.09375 C 16.578125 -14.832031 16.578125 -13.46875 16.578125 -12 C 16.578125 -10.539062 16.554688 -9.09375 16.515625 -7.65625 C 16.484375 -6.21875 16.367188 -4.894531 16.171875 -3.6875 C 15.804688 -1.457031 15.113281 0.078125 14.09375 0.921875 C 13.082031 1.765625 11.796875 2.054688 10.234375 1.796875 C 8.585938 1.523438 7.375 0.84375 6.59375 -0.25 C 5.8125 -1.34375 5.375 -2.976562 5.28125 -5.15625 C 5.289062 -6.84375 5.34375 -8.867188 5.4375 -11.234375 C 5.539062 -13.609375 5.710938 -16.023438 5.953125 -18.484375 C 6.203125 -20.953125 6.488281 -23.160156 6.8125 -25.109375 Z M 6.8125 -25.109375 "/></g></g></g><g fill="#acca96" fill-opacity="1"><g transform="translate(266.388748, 207.360683)"><g><path d="M 18.421875 -42.59375 C 20.273438 -42.195312 21.5 -41.425781 22.09375 -40.28125 C 22.695312 -39.132812 22.863281 -37.941406 22.59375 -36.703125 C 22.257812 -35.160156 21.492188 -34.070312 20.296875 -33.4375 C 19.109375 -32.800781 17.609375 -32.679688 15.796875 -33.078125 C 14.015625 -33.460938 12.789062 -34.210938 12.125 -35.328125 C 11.457031 -36.441406 11.265625 -37.640625 11.546875 -38.921875 C 11.898438 -40.546875 12.695312 -41.660156 13.9375 -42.265625 C 15.1875 -42.867188 16.679688 -42.976562 18.421875 -42.59375 Z M 16 -29.5625 C 17.507812 -29.226562 18.4375 -27.8125 18.78125 -25.3125 C 19.125 -22.8125 18.738281 -19.023438 17.625 -13.953125 C 16.269531 -7.734375 14.757812 -3.363281 13.09375 -0.84375 C 11.4375 1.664062 9.523438 2.679688 7.359375 2.203125 C 5.691406 1.847656 4.679688 0.566406 4.328125 -1.640625 C 3.984375 -3.847656 4.363281 -7.484375 5.46875 -12.546875 C 6.832031 -18.773438 8.453125 -23.269531 10.328125 -26.03125 C 12.210938 -28.800781 14.101562 -29.976562 16 -29.5625 Z M 16 -29.5625 "/></g></g></g><g fill="#acca96" fill-opacity="1"><g transform="translate(281.845283, 210.456645)"><g><path d="M 17.140625 5.484375 C 11.773438 3.972656 8.21875 1.5 6.46875 -1.9375 C 4.71875 -5.382812 4.53125 -9.550781 5.90625 -14.4375 C 6.96875 -18.207031 8.65625 -21.335938 10.96875 -23.828125 C 13.289062 -26.328125 16.097656 -28.007812 19.390625 -28.875 C 22.679688 -29.738281 26.285156 -29.617188 30.203125 -28.515625 C 33.785156 -27.515625 36.34375 -26.117188 37.875 -24.328125 C 39.40625 -22.546875 39.878906 -20.601562 39.296875 -18.5 C 38.910156 -17.125 38.160156 -16.175781 37.046875 -15.65625 C 35.929688 -15.132812 34.539062 -15.109375 32.875 -15.578125 C 32.113281 -15.785156 31.367188 -16.070312 30.640625 -16.4375 C 29.921875 -16.800781 29.179688 -17.171875 28.421875 -17.546875 C 27.660156 -17.921875 26.785156 -18.25 25.796875 -18.53125 C 23.316406 -19.226562 21.28125 -19.125 19.6875 -18.21875 C 18.09375 -17.3125 16.96875 -15.675781 16.3125 -13.3125 C 15.675781 -11.0625 15.820312 -9.25 16.75 -7.875 C 17.6875 -6.507812 19.203125 -5.535156 21.296875 -4.953125 C 22.296875 -4.671875 23.273438 -4.515625 24.234375 -4.484375 C 25.191406 -4.453125 26.117188 -4.425781 27.015625 -4.40625 C 27.910156 -4.382812 28.78125 -4.257812 29.625 -4.03125 C 30.875 -3.675781 31.796875 -3.023438 32.390625 -2.078125 C 32.992188 -1.128906 33.109375 0.0078125 32.734375 1.34375 C 32.316406 2.832031 31.445312 4.03125 30.125 4.9375 C 28.800781 5.84375 27.050781 6.367188 24.875 6.515625 C 22.695312 6.660156 20.117188 6.316406 17.140625 5.484375 Z M 17.140625 5.484375 "/></g></g></g><g fill="#acca96" fill-opacity="1"><g transform="translate(312.215234, 218.814125)"><g><path d="M 27.5625 10.890625 C 25.925781 10.285156 25.015625 9.382812 24.828125 8.1875 C 24.640625 7 24.945312 5.328125 25.75 3.171875 L 26.3125 3.703125 C 22.769531 6.984375 18.125 7.554688 12.375 5.421875 C 9.78125 4.453125 7.789062 3.179688 6.40625 1.609375 C 5.019531 0.046875 4.191406 -1.65625 3.921875 -3.5 C 3.660156 -5.351562 3.875 -7.207031 4.5625 -9.0625 C 5.738281 -12.21875 7.789062 -14.296875 10.71875 -15.296875 C 13.65625 -16.296875 16.976562 -16.109375 20.6875 -14.734375 C 23.050781 -13.847656 24.984375 -12.722656 26.484375 -11.359375 C 27.992188 -10.003906 29.144531 -8.460938 29.9375 -6.734375 L 28.6875 -7.3125 C 29.769531 -10.789062 29.957031 -13.484375 29.25 -15.390625 C 28.539062 -17.304688 27.039062 -18.691406 24.75 -19.546875 C 23.519531 -20.003906 22.265625 -20.257812 20.984375 -20.3125 C 19.703125 -20.363281 18.46875 -20.390625 17.28125 -20.390625 C 16.09375 -20.390625 15.015625 -20.570312 14.046875 -20.9375 C 12.898438 -21.363281 12.132812 -22.023438 11.75 -22.921875 C 11.375 -23.828125 11.382812 -24.816406 11.78125 -25.890625 C 12.332031 -27.367188 13.515625 -28.476562 15.328125 -29.21875 C 17.148438 -29.957031 19.316406 -30.296875 21.828125 -30.234375 C 24.347656 -30.171875 26.90625 -29.65625 29.5 -28.6875 C 32.757812 -27.476562 35.304688 -25.726562 37.140625 -23.4375 C 38.972656 -21.144531 39.90625 -18.410156 39.9375 -15.234375 C 40.019531 -12.617188 39.738281 -9.847656 39.09375 -6.921875 C 38.457031 -3.992188 37.550781 -0.953125 36.375 2.203125 C 35.34375 4.984375 34.375 7.066406 33.46875 8.453125 C 32.5625 9.847656 31.640625 10.707031 30.703125 11.03125 C 29.765625 11.363281 28.71875 11.316406 27.5625 10.890625 Z M 18.421875 -0.5 C 19.472656 -0.101562 20.578125 0.140625 21.734375 0.234375 C 22.898438 0.328125 23.960938 0.203125 24.921875 -0.140625 C 25.878906 -0.484375 26.519531 -1.097656 26.84375 -1.984375 C 27.15625 -2.804688 27.09375 -3.578125 26.65625 -4.296875 C 26.226562 -5.023438 25.582031 -5.703125 24.71875 -6.328125 C 23.851562 -6.953125 22.863281 -7.46875 21.75 -7.875 C 19.820312 -8.59375 18.203125 -8.789062 16.890625 -8.46875 C 15.585938 -8.15625 14.722656 -7.421875 14.296875 -6.265625 C 13.859375 -5.085938 14 -3.992188 14.71875 -2.984375 C 15.445312 -1.972656 16.679688 -1.144531 18.421875 -0.5 Z M 18.421875 -0.5 "/></g></g></g><g fill="#acca96" fill-opacity="1"><g transform="translate(346.121743, 231.789256)"><g/></g></g><path stroke-linecap="butt" transform="matrix(1.30988, -0.470656, 0.470656, 1.30988, 13.282187, 174.226745)" fill="none" stroke-linejoin="miter" d="M 8.186666 38.655573 C 10.43654 39.863587 13.251659 40.469523 16.633921 40.468097 C 19.938024 40.468409 22.420385 39.958744 24.078363 38.938155 C 25.745419 37.908899 26.58018 36.556732 26.579261 34.874473 C 26.579152 33.654737 26.223172 32.736561 25.505831 32.126919 C 24.798311 31.514841 23.860827 31.210795 22.695275 31.209498 C 22.1529 31.208455 21.475791 31.275304 20.664897 31.407405 C 19.859491 31.53253 19.014056 31.661166 18.132183 31.791619 C 17.251258 31.919432 16.424266 31.98014 15.654591 31.980926 C 13.695388 31.980746 12.128154 31.462351 10.945708 30.429127 C 9.766108 29.387979 9.175228 27.613025 9.175708 25.105216 C 9.175201 23.405212 9.474561 22.05749 10.072839 21.064691 C 10.667734 20.064712 11.463492 19.360566 12.457473 18.951305 C 13.44807 18.534864 14.543043 18.325908 15.736161 18.325181 C 16.765036 18.325083 17.66112 18.462164 18.422722 18.732835 C 19.195837 19.004661 19.934206 19.281894 20.64311 19.566434 C 21.358246 19.85023 22.142373 19.991816 22.99549 19.99119 C 24.358134 19.991734 25.406013 19.63166 26.142717 18.909278 C 26.884909 18.179921 27.256425 17.204054 27.256316 15.984318 C 27.256335 14.108557 26.366488 12.592985 24.591108 11.442141 C 22.813087 10.290347 20.375482 9.7127 17.279985 9.712789 C 13.951907 9.712809 11.116967 10.382073 8.767987 11.723967 C 6.422803 13.055295 4.622336 14.937222 3.363944 17.368799 C 2.115374 19.79794 1.489384 22.635675 1.490513 25.87767 C 1.489974 28.808923 2.045738 31.370473 3.154215 33.564012 C 4.268181 35.750577 5.943023 37.446815 8.186666 38.655573 Z M 8.186666 38.655573 " stroke="#699549" stroke-width="1.600001" stroke-opacity="1" stroke-miterlimit="4"/><path stroke-linecap="butt" transform="matrix(1.346895, -0.350967, 0.350967, 1.346895, 52.861532, 160.175394)" fill="none" stroke-linejoin="miter" d="M 19.76796 38.958829 C 20.267183 39.48044 20.971184 39.739289 21.88197 39.738802 C 23.250866 39.738778 24.195321 38.952412 24.713329 37.37628 C 25.242907 35.800263 25.506843 33.418378 25.505137 30.230626 C 25.505044 28.183068 25.419498 26.240851 25.247084 24.409408 C 25.078093 22.575956 24.853427 20.93391 24.570368 19.482562 C 24.284594 18.030507 23.944118 16.877418 23.548941 16.023295 C 23.235618 15.289109 22.772983 14.716128 22.16375 14.305061 C 21.552509 13.89057 20.81806 13.68179 19.965835 13.680136 C 18.938633 13.682191 18.139516 14.022097 17.570491 14.703277 C 17.007606 15.383158 16.726203 16.507609 16.726282 18.076632 C 16.727422 18.784575 16.7749 19.693106 16.873441 20.806354 C 16.969974 21.916179 17.067577 23.055285 17.164243 24.220248 C 17.267756 25.381195 17.32011 26.415703 17.321305 27.323774 C 17.319087 29.124214 16.994782 30.524605 16.340838 31.53168 C 15.68961 32.539464 14.73504 33.041876 13.476421 33.041633 C 12.594208 33.043765 11.862438 32.702275 11.279697 32.022592 C 10.696955 31.34291 10.322263 30.276611 10.155621 28.823697 C 10.099421 27.970897 10.039742 26.919979 9.977292 25.668226 C 9.922989 24.418595 9.873526 23.161525 9.831617 21.897722 C 9.791123 20.628489 9.712778 19.537904 9.602014 18.627384 C 9.485708 17.315194 9.126851 16.299425 8.529575 15.575352 C 7.931591 14.853996 7.123779 14.49269 6.102716 14.493444 C 5.22121 14.492861 4.483334 14.697915 3.883655 15.107191 C 3.286691 15.517174 2.845999 16.16219 2.560869 17.044955 C 2.332122 17.733598 2.164938 18.597794 2.062033 19.638249 C 1.965974 20.674688 1.915988 21.801437 1.916797 23.022627 C 1.916637 25.438443 2.093445 27.787265 2.448635 30.063662 C 2.807956 32.335334 3.301523 34.180857 3.925204 35.604955 C 4.605934 37.110623 5.536389 38.214433 6.716567 38.916383 C 7.898869 39.610186 9.255463 39.95788 10.789773 39.957457 C 11.874122 39.958693 12.95876 39.725089 14.048412 39.260776 C 15.146326 38.787015 16.11419 38.111155 16.956134 37.228473 C 17.650181 36.501565 18.171107 35.659941 18.525758 34.699585 C 18.548758 35.468328 18.629248 36.205649 18.768645 36.906116 C 18.941376 37.745777 19.276292 38.430487 19.76796 38.958829 Z M 19.76796 38.958829 " stroke="#699549" stroke-width="1.600001" stroke-opacity="1" stroke-miterlimit="4"/><path stroke-linecap="butt" transform="matrix(1.367809, -0.257687, 0.257687, 1.367809, 92.211949, 150.320484)" fill="none" stroke-linejoin="miter" d="M 4.685748 39.427989 C 5.317564 39.864018 6.158862 40.082486 7.206884 40.082875 C 8.346278 40.083342 9.419679 39.842908 10.426566 39.364332 C 11.440528 38.878521 12.273423 38.247221 12.925251 37.47043 C 13.578637 36.685366 13.904666 35.864331 13.905576 35.010605 C 13.905326 34.102399 13.668174 33.420867 13.19636 32.969288 C 12.731619 32.510474 12.057557 32.283529 11.175212 32.28294 C 10.398549 32.282269 9.561892 32.478772 8.663003 32.869172 C 8.906011 31.761192 9.126314 30.591818 9.322195 29.355013 C 9.647571 27.294419 9.908673 25.196014 10.101707 23.064793 C 10.303533 20.932374 10.404076 18.897963 10.403335 16.96156 C 10.404637 15.453919 10.341908 14.028458 10.215667 12.682418 C 10.090984 11.328105 9.9444 10.180998 9.76936 9.245574 C 9.511179 8.160262 9.141525 7.393795 8.655401 6.942376 C 8.176352 6.483721 7.565562 6.254418 6.823034 6.254467 C 6.114639 6.255234 5.501737 6.476756 4.989322 6.922831 C 4.481743 7.358393 4.01302 8.118274 3.583151 9.202474 C 3.299331 10.057163 3.027946 11.285455 2.771234 12.890626 C 2.512284 14.49252 2.304218 16.263928 2.144798 18.201571 C 1.992453 20.13198 1.91649 22.051077 1.916392 23.961619 C 1.916107 27.08586 2.023296 29.730576 2.240719 31.896286 C 2.453665 34.055441 2.774886 35.806618 3.196628 37.145499 C 3.564807 38.222975 4.061526 38.981967 4.685748 39.427989 Z M 4.685748 39.427989 " stroke="#699549" stroke-width="1.600001" stroke-opacity="1" stroke-miterlimit="4"/><path stroke-linecap="butt" transform="matrix(1.377794, -0.197449, 0.197449, 1.377794, 113.951152, 146.301026)" fill="none" stroke-linejoin="miter" d="M 9.343042 8.350075 C 8.745634 7.632224 7.761888 7.275774 6.395376 7.275567 C 5.116578 7.276589 4.085704 7.585316 3.302754 8.201745 C 2.523377 8.813017 2.136005 9.715783 2.134683 10.912026 C 2.133873 11.847509 2.454604 12.656127 3.094098 13.337482 C 3.730815 14.018439 4.708616 14.357026 6.021149 14.358003 C 7.353528 14.358989 8.387976 14.045105 9.123699 13.421907 C 9.865376 12.796727 10.238451 11.914593 10.237367 10.774708 C 10.237372 9.864627 9.939264 9.056416 9.343042 8.350075 Z M 9.299282 19.358352 C 8.676514 17.650235 7.806897 16.794144 6.697969 16.796829 C 5.300501 16.795021 4.156551 17.91257 3.260563 20.148681 C 2.365372 22.379235 1.917759 25.779639 1.916927 30.355448 C 1.915677 34.083488 2.207829 36.693999 2.790606 38.186584 C 3.373383 39.679169 4.278372 40.426923 5.500414 40.426273 C 7.09633 40.428168 8.284686 39.416213 9.061906 37.395564 C 9.844683 35.375711 10.237876 32.07808 10.238707 27.502271 C 10.23718 23.773833 9.926023 21.058533 9.299282 19.358352 Z M 9.299282 19.358352 " stroke="#699549" stroke-width="1.600001" stroke-opacity="1" stroke-miterlimit="4"/><path stroke-linecap="butt" transform="matrix(1.387628, -0.108586, 0.108586, 1.387628, 132.948205, 143.311279)" fill="none" stroke-linejoin="miter" d="M 9.247554 14.577416 C 8.824284 13.8349 8.062371 13.462807 6.956001 13.463496 C 5.644287 13.462192 4.662295 14.139783 4.010244 15.493471 C 3.355833 16.841343 2.889349 18.665591 2.604757 20.971371 C 2.458496 22.19292 2.335301 23.551396 2.238188 25.044221 C 2.141075 26.537046 2.061406 28.022791 1.999182 29.501455 C 1.945351 30.980777 1.916677 32.318499 1.916175 33.512043 C 1.916533 35.845752 2.248404 37.504454 2.917382 38.488587 C 3.589377 39.47014 4.592642 39.959647 5.927176 39.957107 C 7.036126 39.959434 7.920241 39.56132 8.570472 38.770501 C 9.232551 37.972164 9.629067 36.646336 9.768414 34.793674 C 9.825997 34.057821 9.859905 33.156841 9.872719 32.093753 C 9.888769 31.025288 9.900317 29.942396 9.915758 28.845733 C 9.928401 27.748851 9.980411 26.832398 10.071788 26.096374 C 10.328306 24.185319 10.845983 22.714145 11.62224 21.679833 C 12.407547 20.637784 13.368665 20.119018 14.50883 20.118158 C 16.639775 20.118823 17.706062 21.781509 17.704896 25.105998 C 17.705511 26.10539 17.645426 27.268936 17.527437 28.596854 C 17.418717 29.914238 17.302261 31.22257 17.183663 32.52229 C 17.074116 33.814273 17.019066 34.913467 17.018295 35.822669 C 17.016966 36.990813 17.274697 37.906169 17.788255 38.574114 C 18.302031 39.239261 19.041609 39.57301 20.007208 39.572565 C 20.91641 39.573337 21.704327 39.325338 22.37052 38.834164 C 23.045983 38.332455 23.580355 37.583241 23.976655 36.583942 C 24.259385 35.848817 24.499342 34.904846 24.693728 33.751809 C 24.896508 32.59943 25.057901 31.328394 25.183505 29.939141 C 25.315143 28.544729 25.381601 27.119882 25.382441 25.670194 C 25.381059 23.133722 25.07658 20.945118 24.464065 19.095552 C 23.854129 17.249002 22.938638 15.81769 21.715234 14.795802 C 20.492267 13.768318 18.972871 13.255312 17.154466 13.253769 C 15.555394 13.255314 14.053791 13.774011 12.643623 14.815019 C 11.451497 15.69574 10.532133 16.868051 9.882735 18.331733 C 9.889838 18.169016 9.893706 18.011675 9.894556 17.856914 C 9.895396 16.407226 9.679875 15.312195 9.247554 14.577416 Z M 9.247554 14.577416 " stroke="#699549" stroke-width="1.600001" stroke-opacity="1" stroke-miterlimit="4"/><path stroke-linecap="butt" transform="matrix(1.391797, 0.0143046, -0.0143046, 1.391797, 173.94222, 140.252628)" fill="none" stroke-linejoin="miter" d="M 1.937304 39.178311 C 2.548423 39.927012 3.422335 40.302537 4.56182 40.302052 C 5.560987 40.30301 6.381078 40.084084 7.019285 39.645305 C 7.657434 39.200913 8.17 38.552928 8.55134 37.698602 C 8.938293 36.844218 9.230589 35.791536 9.425451 34.543393 C 9.655691 33.460476 9.853821 32.257205 10.019898 30.939192 C 10.043309 30.759327 10.063885 30.576685 10.08449 30.39685 C 10.500518 30.459933 10.927686 30.514482 11.363128 30.554912 C 12.801381 30.677655 14.17972 30.705588 15.498117 30.635905 C 16.095605 30.604505 16.647932 30.548309 17.155127 30.470124 C 17.153215 30.557149 17.154109 30.644145 17.152197 30.73117 C 17.154816 32.078322 17.21041 33.391251 17.318948 34.667149 C 17.522155 36.688636 17.969212 38.132259 18.662955 39.000795 C 19.356698 39.869332 20.332244 40.302752 21.589594 40.301056 C 22.950807 40.301098 24.012452 39.827094 24.777307 38.876208 C 25.547688 37.916845 25.933591 36.414141 25.93218 34.365321 C 25.932999 32.260345 25.770358 30.08969 25.444172 27.844937 C 25.117957 25.597377 24.654779 23.404552 24.057533 21.27485 C 23.460258 19.142341 22.822935 17.209515 22.142731 15.473592 C 21.08636 12.910776 19.903044 11.104245 18.590006 10.056837 C 17.2853 9.000923 15.865345 8.473838 14.330111 8.472777 C 13.311327 8.474828 12.328412 8.689814 11.3842 9.120512 C 10.445514 9.542733 9.549318 10.276053 8.695583 11.317665 C 7.850181 12.350771 6.983849 13.805086 6.102198 15.680552 C 5.388243 17.214693 4.726187 18.883019 4.113165 20.679945 C 3.502892 22.47123 2.962719 24.256181 2.489841 26.034827 C 2.025352 27.810581 1.663631 29.481433 1.404618 31.041771 C 1.148441 32.604886 1.021854 33.94214 1.02205 35.053561 C 1.020078 37.046284 1.326098 38.421191 1.937304 39.178311 Z M 17.32084 24.20123 C 16.613311 24.722114 15.532607 24.980204 14.081592 24.981084 C 12.71196 24.981128 11.66544 24.742094 10.936417 24.264041 C 10.212921 23.777512 9.852546 23.121659 9.852456 22.293706 C 9.851666 21.670644 9.96779 20.953761 10.195272 20.148729 C 10.425474 19.335249 10.731765 18.551859 11.114114 17.795754 C 11.493657 17.039679 11.941908 16.414808 12.45606 15.921171 C 12.970125 15.419115 13.540136 15.171887 14.163198 15.171097 C 14.761003 15.170566 15.319223 15.414618 15.840635 15.900418 C 16.367572 16.377742 16.817231 16.982157 17.183969 17.710917 C 17.559068 18.433977 17.850208 19.180353 18.060195 19.950017 C 18.275738 20.71401 18.38363 21.380877 18.383872 21.950619 C 18.382627 22.921724 18.028283 23.671927 17.32084 24.20123 Z M 17.32084 24.20123 " stroke="#699549" stroke-width="1.600001" stroke-opacity="1" stroke-miterlimit="4"/><path stroke-linecap="butt" transform="matrix(1.386076, 0.126872, -0.126872, 1.386076, 214.358062, 140.903751)" fill="none" stroke-linejoin="miter" d="M 8.681285 15.735965 C 8.440716 14.585611 8.321896 13.503022 8.321518 12.482866 C 8.320725 10.380556 8.904607 8.723551 10.070623 7.514903 C 11.23664 6.306254 13.213312 5.702592 15.997846 5.704172 C 17.761967 5.703334 19.03308 5.981534 19.808132 6.536233 C 20.59462 7.092704 20.986172 7.922054 20.98584 9.026821 C 20.985514 10.96296 19.919521 12.032815 17.787606 12.233592 C 16.851095 12.316496 16.124763 12.478799 15.611659 12.723039 C 15.097789 12.958895 14.726292 13.333903 14.497171 13.848061 C 14.301804 14.299948 14.171836 14.912122 14.104985 15.69043 C 14.528968 15.550166 14.986508 15.437831 15.477094 15.347835 C 16.247139 15.201259 17.004272 15.129138 17.748236 15.128677 C 19.052969 15.127616 20.11217 15.399849 20.922531 15.940043 C 21.735944 16.482776 22.143299 17.392408 22.141802 18.669193 C 22.143593 19.920313 21.716546 20.85841 20.860662 21.483484 C 20.007573 22.108302 18.956609 22.418684 17.705489 22.420475 C 17.107877 22.418812 16.472122 22.369913 15.798226 22.273777 C 15.261293 22.196105 14.727648 22.092768 14.19729 21.963766 C 14.445713 23.076765 14.667761 24.271087 14.863179 25.543939 C 15.105002 27.077455 15.296263 28.612781 15.433911 30.147377 C 15.579944 31.681206 15.655282 33.120051 15.653824 34.458833 C 15.653728 35.535397 15.490964 36.528213 15.165534 37.437282 C 14.837309 38.346606 14.354232 39.07283 13.716303 39.615953 C 13.078119 40.156282 12.257332 40.425867 11.25979 40.426993 C 9.723838 40.426673 8.624589 39.901648 7.956711 38.855226 C 7.290859 37.800163 6.956687 36.489284 6.957499 34.927923 C 6.957755 33.699161 7.027273 32.303421 7.166053 30.740704 C 7.310423 29.177475 7.526671 27.568212 7.811491 25.907582 C 8.056057 24.484547 8.33851 23.105953 8.664439 21.77129 C 7.55689 22.202397 6.235266 22.419189 4.696519 22.419125 C 3.386197 22.420698 2.37248 22.152756 1.655626 21.618094 C 0.946644 21.077075 0.593451 20.235759 0.593509 19.097198 C 0.59404 17.902229 1.005597 16.979641 1.833514 16.326127 C 2.658637 15.672868 3.770318 15.348474 5.165252 15.347611 C 5.957239 15.348391 6.685989 15.397233 7.354296 15.49388 C 7.828464 15.563206 8.272657 15.643731 8.681285 15.735965 Z M 8.681285 15.735965 " stroke="#699549" stroke-width="1.600001" stroke-opacity="1" stroke-miterlimit="4"/><path stroke-linecap="butt" transform="matrix(1.373711, 0.224102, -0.224102, 1.373711, 248.366179, 144.161153)" fill="none" stroke-linejoin="miter" d="M 2.854833 15.002595 C 2.229315 16.310316 1.91702 18.439916 1.916083 21.397387 C 1.915339 22.822139 1.971665 24.422414 2.082742 26.201432 C 2.201677 27.976326 2.357189 29.713972 2.551145 31.408381 C 2.752507 33.095895 2.953334 34.536104 3.156398 35.728558 C 3.467609 37.27019 3.964846 38.383374 4.644437 39.063022 C 5.332788 39.744084 6.272387 40.08274 7.466907 40.084077 C 8.606992 40.082921 9.487607 39.728836 10.114293 39.020919 C 10.736854 38.305145 11.049988 37.13938 11.050474 35.521306 C 11.051659 34.639605 10.976033 33.68797 10.832358 32.667817 C 10.693318 31.64122 10.536304 30.609025 10.361767 29.574001 C 10.197406 28.53163 10.039705 27.564949 9.893301 26.667515 C 9.75611 25.774264 9.684809 25.04088 9.685841 24.471996 C 9.68543 23.249326 9.877576 22.248321 10.259963 21.472202 C 10.640995 20.687774 11.162784 20.295545 11.822111 20.293198 C 12.328702 20.295862 12.702422 20.564749 12.947396 21.107718 C 13.188245 21.642828 13.2689 22.60786 13.186592 24.003265 C 13.066626 25.48159 13.221264 26.534078 13.644513 27.158863 C 14.073302 27.782744 14.744459 28.096947 15.654311 28.096383 C 16.876981 28.095971 17.856091 27.54383 18.59164 26.439958 C 19.334596 25.329191 19.704412 23.377883 19.703858 20.585583 C 19.704631 18.481211 19.285255 16.729739 18.444824 15.325626 C 17.612252 13.917387 16.328339 13.211209 14.59122 13.213082 C 13.169238 13.211886 11.957577 13.767842 10.955786 14.878181 C 10.08736 15.847333 9.413533 16.980946 8.937077 18.278567 C 8.895617 17.588655 8.786776 16.904047 8.612873 16.221524 C 8.391742 15.319218 8.03815 14.56364 7.551646 13.952017 C 7.065142 13.340395 6.39534 13.034502 5.539471 13.03479 C 4.382315 13.035888 3.485439 13.691201 2.854833 15.002595 Z M 2.854833 15.002595 " stroke="#699549" stroke-width="1.600001" stroke-opacity="1" stroke-miterlimit="4"/><path stroke-linecap="butt" transform="matrix(1.359854, 0.296818, -0.296818, 1.359854, 278.331109, 149.255527)" fill="none" stroke-linejoin="miter" d="M 9.343462 8.349411 C 8.744653 7.632711 7.76185 7.275592 6.394454 7.275311 C 5.116247 7.27567 4.08619 7.583807 3.30214 8.203061 C 2.525118 8.815036 2.135736 9.715832 2.135191 10.910933 C 2.13562 11.847291 2.453111 12.656992 3.093145 13.33884 C 3.732581 14.017946 4.709052 14.359213 6.018617 14.357754 C 7.354654 14.359134 8.386257 14.044915 9.123444 13.421527 C 9.866115 12.796942 10.239296 11.914045 10.238101 10.776775 C 10.237574 9.866292 9.940475 9.057885 9.343462 8.349411 Z M 9.301685 19.357529 C 8.676169 17.649884 7.809084 16.796408 6.69709 16.794958 C 5.301078 16.795178 4.154732 17.912904 3.260792 20.147538 C 2.362914 22.377286 1.916615 25.781008 1.915813 30.357157 C 1.916682 34.08554 2.207905 36.696319 2.792223 38.188898 C 3.373799 39.682075 4.277517 40.427016 5.498492 40.427659 C 7.095415 40.426674 8.282751 39.417775 9.062045 37.394882 C 9.845277 35.376873 10.236696 32.077052 10.237498 27.500902 C 10.236628 23.77252 9.926004 21.059691 9.301685 19.357529 Z M 9.301685 19.357529 " stroke="#699549" stroke-width="1.600001" stroke-opacity="1" stroke-miterlimit="4"/><path stroke-linecap="butt" transform="matrix(1.340131, 0.375968, -0.375968, 1.340131, 296.953607, 153.14038)" fill="none" stroke-linejoin="miter" d="M 4.093297 37.397496 C 5.973243 39.443877 8.918984 40.468377 12.924358 40.469811 C 15.148329 40.469659 16.998459 40.207117 18.476267 39.687591 C 19.954503 39.1592 21.062726 38.454791 21.797478 37.57242 C 22.541094 36.690477 22.911702 35.694568 22.912005 34.583934 C 22.914093 33.583562 22.614373 32.816518 22.018247 32.281285 C 21.420605 31.740648 20.650894 31.469811 19.706412 31.469532 C 19.079965 31.47039 18.45507 31.549512 17.829785 31.710358 C 17.204928 31.862341 16.559969 32.025792 15.894152 32.19801 C 15.226818 32.364824 14.521715 32.448959 13.778843 32.450416 C 12.21602 32.44872 10.980768 32.066558 10.070385 31.304687 C 9.163132 30.533194 8.707945 29.3055 8.706339 27.627011 C 8.707068 25.863336 9.167654 24.512808 10.090798 23.57467 C 11.0147 22.639233 12.401295 22.168615 14.246694 22.169735 C 14.990325 22.170981 15.659285 22.228152 16.257794 22.345896 C 16.854787 22.458236 17.434051 22.56972 17.998287 22.67959 C 18.565984 22.791404 19.135491 22.847328 19.706807 22.847364 C 20.962403 22.844891 21.924467 22.554584 22.591482 21.97104 C 23.255795 21.388253 23.590395 20.58608 23.589879 19.566035 C 23.588873 18.00397 22.885148 16.752728 21.476762 15.815769 C 20.072263 14.871889 18.036367 14.399543 15.363668 14.400247 C 12.431525 14.400865 9.911995 15.020263 7.801188 16.265362 C 5.696213 17.50008 4.081283 19.203602 2.957156 21.378631 C 1.841135 23.551385 1.281783 26.046 1.280616 28.86788 C 1.280943 32.505492 2.217998 35.346896 4.093297 37.397496 Z M 4.093297 37.397496 " stroke="#699549" stroke-width="1.600001" stroke-opacity="1" stroke-miterlimit="4"/><path stroke-linecap="butt" transform="matrix(1.304508, 0.485346, -0.485346, 1.304508, 331.698734, 162.922782)" fill="none" stroke-linejoin="miter" d="M 18.767004 39.301778 C 19.198651 40.051487 20.03923 40.427465 21.287761 40.42708 C 22.171355 40.427723 22.889983 40.202277 23.443644 39.750743 C 24.000609 39.291991 24.40246 38.480714 24.653479 37.312323 C 24.908108 36.145584 25.037845 34.498293 25.038103 32.366168 C 25.037453 29.94991 24.888952 27.6755 24.589969 25.543914 C 24.291659 23.40609 23.788852 21.46712 23.080875 19.733245 C 22.254366 17.600296 20.939033 15.996568 19.131266 14.92041 C 17.326803 13.837035 15.17604 13.295731 12.675368 13.294849 C 10.681853 13.29692 8.831464 13.587104 7.123529 14.171642 C 5.414616 14.753549 4.041577 15.521912 2.999827 16.472451 C 1.964316 17.423662 1.448865 18.468847 1.447234 19.607335 C 1.44641 20.434102 1.689719 21.104162 2.177161 21.617514 C 2.662646 22.125605 3.346207 22.377341 4.229801 22.377984 C 4.963284 22.377581 5.728031 22.227804 6.51878 21.930609 C 7.31742 21.630478 8.158083 21.338668 9.04077 21.055178 C 9.922477 20.769057 10.8314 20.628522 11.768212 20.627331 C 13.531791 20.626965 14.889245 21.18494 15.841249 22.295016 C 16.695019 23.285932 17.224018 24.876786 17.428248 27.06758 C 16.698147 26.521739 15.883385 26.070279 14.986591 25.712222 C 13.640269 25.168072 12.057394 24.897586 10.236989 24.898134 C 7.391749 24.896689 5.106369 25.603239 3.385132 27.013198 C 1.669155 28.4212 0.812469 30.335959 0.813119 32.752217 C 0.813069 34.168598 1.131289 35.466565 1.770408 36.645141 C 2.410506 37.826347 3.388879 38.773897 4.706507 39.490422 C 6.032699 40.197772 7.694846 40.552552 9.685731 40.55146 C 13.680958 40.553251 16.507158 39.280168 18.163656 36.738448 C 18.23959 37.860055 18.441358 38.716252 18.767004 39.301778 Z M 14.695293 34.708049 C 13.882708 34.938507 13.081261 35.054028 12.289972 35.051982 C 10.949136 35.05377 9.907856 34.806364 9.164479 34.313373 C 8.430646 33.813837 8.061635 33.103706 8.062034 32.187265 C 8.061025 31.30728 8.459325 30.599134 9.260542 30.064479 C 10.056193 29.522912 11.195057 29.251909 12.674503 29.252451 C 13.52164 29.251685 14.31366 29.352276 15.050562 29.554222 C 15.793398 29.747972 16.399333 30.040567 16.87265 30.42742 C 17.344987 30.811642 17.579861 31.314158 17.581857 31.93925 C 17.580427 32.619516 17.303676 33.195601 16.748974 33.668483 C 16.191336 34.133474 15.508855 34.480221 14.695293 34.708049 Z M 14.695293 34.708049 " stroke="#699549" stroke-width="1.600001" stroke-opacity="1" stroke-miterlimit="4"/></svg>